# Blender v2.67 (sub 0) OBJ File: 'gameover.blend'
# www.blender.org
o Text
v -3.704654 0.357144 -0.100001
v -4.061797 0.357144 -0.100001
v -4.204654 0.500001 -0.100001
v -4.204654 0.571429 -0.100001
v -3.704654 0.571429 -0.100001
v -3.704654 0.000001 -0.100001
v -3.490368 0.000001 -0.100001
v -3.490368 0.714286 -0.100001
v -4.418940 0.714287 -0.100001
v -4.418940 0.464287 -0.100001
v -4.311797 0.357144 -0.100001
v -4.240368 0.357144 -0.100001
v -4.418940 0.178572 -0.100001
v -4.418940 0.000001 -0.100001
v -4.204654 0.000001 -0.100001
v -4.204654 0.142858 -0.100001
v -4.133225 0.214286 -0.100001
v -3.704654 0.214286 -0.100001
v -3.347511 0.000001 -0.100001
v -2.418940 0.000001 -0.100001
v -2.418940 0.714286 -0.100001
v -3.347511 0.714286 -0.100001
v -3.347511 0.571429 -0.100001
v -2.633225 0.571429 -0.100001
v -2.633225 0.428572 -0.100001
v -3.240368 0.428572 -0.100001
v -3.097511 0.285715 -0.100001
v -2.633225 0.285715 -0.100001
v -2.633225 0.142858 -0.100001
v -3.347511 0.142858 -0.100001
v -1.811797 0.000001 -0.100001
v -1.347511 0.000001 -0.100001
v -1.347511 0.714286 -0.100001
v -1.561797 0.714286 -0.100001
v -1.561797 0.142858 -0.100001
v -1.704654 0.142858 -0.100001
v -2.061797 0.500001 -0.100001
v -2.061797 0.714286 -0.100001
v -2.276083 0.714286 -0.100001
v -2.276083 0.464286 -0.100001
v -0.490368 0.142858 -0.100001
v -0.847511 0.142858 -0.100001
v -0.990368 0.285715 -0.100001
v -0.990368 0.571429 -0.100001
v -0.633225 0.571429 -0.100001
v -0.490368 0.428572 -0.100001
v -0.954654 0.000000 -0.100001
v -0.276083 0.000000 -0.100001
v -0.276083 0.464286 -0.100001
v -0.526083 0.714286 -0.100001
v -1.204654 0.714286 -0.100001
v -1.204654 0.250001 -0.100001
v 0.295347 0.000000 -0.100001
v 1.223918 0.000000 -0.100001
v 1.223918 0.714286 -0.100001
v 0.295347 0.714286 -0.100001
v 0.295347 0.571429 -0.100001
v 1.009632 0.571429 -0.100001
v 1.009632 0.428572 -0.100001
v 0.402490 0.428572 -0.100001
v 0.545347 0.285715 -0.100001
v 1.009632 0.285715 -0.100001
v 1.009632 0.142857 -0.100001
v 0.295347 0.142858 -0.100001
v 2.223918 0.000000 -0.100000
v 2.438204 0.000000 -0.100000
v 2.438204 0.714286 -0.100000
v 1.545347 0.714286 -0.100001
v 1.366775 0.535715 -0.100001
v 1.366775 0.000000 -0.100001
v 1.581061 0.000000 -0.100000
v 1.581061 0.500000 -0.100001
v 1.652489 0.571429 -0.100001
v 1.795347 0.571429 -0.100000
v 1.795347 0.000000 -0.100000
v 2.009632 0.000000 -0.100000
v 2.009632 0.571429 -0.100000
v 2.223918 0.571429 -0.100000
v 3.295347 0.285714 -0.100000
v 2.795347 0.285714 -0.100000
v 2.795347 0.428572 -0.100000
v 2.938204 0.571429 -0.100000
v 3.295347 0.571429 -0.100000
v 3.295347 0.000000 -0.100000
v 3.509633 0.000000 -0.100000
v 3.509633 0.714286 -0.100000
v 2.831061 0.714286 -0.100000
v 2.581061 0.464286 -0.100000
v 2.581061 0.000000 -0.100000
v 2.795347 0.000000 -0.100000
v 2.795347 0.142857 -0.100000
v 3.295347 0.142857 -0.100000
v 3.652490 0.000000 -0.100000
v 4.581061 -0.000000 -0.100000
v 4.581061 0.464286 -0.100000
v 4.331061 0.714286 -0.100000
v 3.652490 0.714286 -0.100000
v 3.652490 0.571429 -0.100000
v 4.223918 0.571429 -0.100000
v 4.366776 0.428571 -0.100000
v 4.366776 0.142857 -0.100000
v 3.866775 0.142857 -0.100000
v 3.866776 0.428572 -0.100000
v 3.652490 0.428572 -0.100000
v -3.704654 0.357144 0.099999
v -4.061797 0.357144 0.099999
v -4.204654 0.500001 0.099999
v -4.204654 0.571429 0.099999
v -3.704654 0.571429 0.099999
v -3.704654 0.000001 0.099999
v -3.490368 0.000001 0.099999
v -3.490368 0.714286 0.099999
v -4.418940 0.714287 0.099999
v -4.418940 0.464287 0.099999
v -4.311797 0.357144 0.099999
v -4.240368 0.357144 0.099999
v -4.418940 0.178572 0.099999
v -4.418940 0.000001 0.099999
v -4.204654 0.000001 0.099999
v -4.204654 0.142858 0.099999
v -4.133225 0.214287 0.099999
v -3.704654 0.214286 0.099999
v -3.347511 0.000001 0.099999
v -2.418940 0.000001 0.099999
v -2.418940 0.714286 0.099999
v -3.347511 0.714286 0.099999
v -3.347511 0.571429 0.099999
v -2.633225 0.571429 0.099999
v -2.633225 0.428572 0.099999
v -3.240368 0.428572 0.099999
v -3.097511 0.285715 0.099999
v -2.633225 0.285715 0.099999
v -2.633225 0.142858 0.099999
v -3.347511 0.142858 0.099999
v -1.811797 0.000001 0.099999
v -1.347511 0.000001 0.099999
v -1.347511 0.714286 0.099999
v -1.561797 0.714286 0.099999
v -1.561797 0.142858 0.099999
v -1.704654 0.142858 0.099999
v -2.061797 0.500001 0.099999
v -2.061797 0.714286 0.099999
v -2.276083 0.714286 0.099999
v -2.276083 0.464286 0.099999
v -0.490368 0.142858 0.099999
v -0.847511 0.142858 0.099999
v -0.990368 0.285715 0.099999
v -0.990368 0.571429 0.099999
v -0.633225 0.571429 0.099999
v -0.490368 0.428572 0.099999
v -0.954654 0.000000 0.099999
v -0.276083 0.000000 0.099999
v -0.276083 0.464286 0.099999
v -0.526083 0.714286 0.099999
v -1.204654 0.714286 0.099999
v -1.204654 0.250001 0.099999
v 0.295347 0.000000 0.099999
v 1.223918 0.000000 0.099999
v 1.223918 0.714286 0.099999
v 0.295347 0.714286 0.099999
v 0.295347 0.571429 0.099999
v 1.009632 0.571429 0.099999
v 1.009632 0.428572 0.099999
v 0.402490 0.428572 0.099999
v 0.545347 0.285715 0.099999
v 1.009632 0.285715 0.099999
v 1.009632 0.142857 0.099999
v 0.295347 0.142858 0.099999
v 2.223918 0.000000 0.100000
v 2.438204 0.000000 0.100000
v 2.438204 0.714286 0.100000
v 1.545347 0.714286 0.099999
v 1.366775 0.535715 0.099999
v 1.366775 0.000000 0.100000
v 1.581061 0.000000 0.100000
v 1.581061 0.500000 0.100000
v 1.652489 0.571429 0.100000
v 1.795347 0.571429 0.100000
v 1.795347 0.000000 0.100000
v 2.009632 0.000000 0.100000
v 2.009632 0.571429 0.100000
v 2.223918 0.571429 0.100000
v 3.295347 0.285714 0.100000
v 2.795347 0.285714 0.100000
v 2.795347 0.428572 0.100000
v 2.938204 0.571429 0.100000
v 3.295347 0.571429 0.100000
v 3.295347 0.000000 0.100000
v 3.509633 0.000000 0.100000
v 3.509633 0.714286 0.100000
v 2.831061 0.714286 0.100000
v 2.581061 0.464286 0.100000
v 2.581061 0.000000 0.100000
v 2.795347 0.000000 0.100000
v 2.795347 0.142857 0.100000
v 3.295347 0.142857 0.100000
v 3.652490 0.000000 0.100000
v 4.581061 0.000000 0.100000
v 4.581061 0.464286 0.100000
v 4.331061 0.714286 0.100000
v 3.652490 0.714286 0.100000
v 3.652490 0.571429 0.100000
v 4.223918 0.571429 0.100000
v 4.366776 0.428571 0.100000
v 4.366776 0.142857 0.100000
v 3.866775 0.142857 0.100000
v 3.866776 0.428572 0.100000
v 3.652490 0.428572 0.100000
v 3.652490 0.000000 0.100000
v 3.652490 0.000000 -0.100000
v 4.581061 0.000000 0.100000
v 4.581061 -0.000000 -0.100000
v 4.581061 0.464286 0.100000
v 4.581061 0.464286 -0.100000
v 4.331061 0.714286 0.100000
v 4.331061 0.714286 -0.100000
v 3.652490 0.714286 0.100000
v 3.652490 0.714286 -0.100000
v 3.652490 0.571429 0.100000
v 3.652490 0.571429 -0.100000
v 4.223918 0.571429 0.100000
v 4.223918 0.571429 -0.100000
v 4.366776 0.428571 0.100000
v 4.366776 0.428571 -0.100000
v 4.366776 0.142857 0.100000
v 4.366776 0.142857 -0.100000
v 3.866775 0.142857 0.100000
v 3.866775 0.142857 -0.100000
v 3.866776 0.428572 0.100000
v 3.866776 0.428572 -0.100000
v 3.652490 0.428572 0.100000
v 3.652490 0.428572 -0.100000
v 3.295347 0.285714 0.100000
v 3.295347 0.285714 -0.100000
v 2.795347 0.285714 0.100000
v 2.795347 0.285714 -0.100000
v 2.795347 0.428572 0.100000
v 2.795347 0.428572 -0.100000
v 2.938204 0.571429 0.100000
v 2.938204 0.571429 -0.100000
v 3.295347 0.571429 0.100000
v 3.295347 0.571429 -0.100000
v 3.295347 0.000000 0.100000
v 3.295347 0.000000 -0.100000
v 3.509633 0.000000 0.100000
v 3.509633 0.000000 -0.100000
v 3.509633 0.714286 0.100000
v 3.509633 0.714286 -0.100000
v 2.831061 0.714286 0.100000
v 2.831061 0.714286 -0.100000
v 2.581061 0.464286 0.100000
v 2.581061 0.464286 -0.100000
v 2.581061 0.000000 0.100000
v 2.581061 0.000000 -0.100000
v 2.795347 0.000000 0.100000
v 2.795347 0.000000 -0.100000
v 2.795347 0.142857 0.100000
v 2.795347 0.142857 -0.100000
v 3.295347 0.142857 0.100000
v 3.295347 0.142857 -0.100000
v 2.223918 0.000000 0.100000
v 2.223918 0.000000 -0.100000
v 2.438204 0.000000 0.100000
v 2.438204 0.000000 -0.100000
v 2.438204 0.714286 0.100000
v 2.438204 0.714286 -0.100000
v 1.545347 0.714286 0.099999
v 1.545347 0.714286 -0.100001
v 1.366775 0.535715 0.099999
v 1.366775 0.535715 -0.100001
v 1.366775 0.000000 0.100000
v 1.366775 0.000000 -0.100001
v 1.581061 0.000000 0.100000
v 1.581061 0.000000 -0.100000
v 1.581061 0.500000 0.100000
v 1.581061 0.500000 -0.100001
v 1.652489 0.571429 0.100000
v 1.652489 0.571429 -0.100001
v 1.795347 0.571429 0.100000
v 1.795347 0.571429 -0.100000
v 1.795347 0.000000 0.100000
v 1.795347 0.000000 -0.100000
v 2.009632 0.000000 0.100000
v 2.009632 0.000000 -0.100000
v 2.009632 0.571429 0.100000
v 2.009632 0.571429 -0.100000
v 2.223918 0.571429 0.100000
v 2.223918 0.571429 -0.100000
v 0.295347 0.000000 0.099999
v 0.295347 0.000000 -0.100001
v 1.223918 0.000000 0.099999
v 1.223918 0.000000 -0.100001
v 1.223918 0.714286 0.099999
v 1.223918 0.714286 -0.100001
v 0.295347 0.714286 0.099999
v 0.295347 0.714286 -0.100001
v 0.295347 0.571429 0.099999
v 0.295347 0.571429 -0.100001
v 1.009632 0.571429 0.099999
v 1.009632 0.571429 -0.100001
v 1.009632 0.428572 0.099999
v 1.009632 0.428572 -0.100001
v 0.402490 0.428572 0.099999
v 0.402490 0.428572 -0.100001
v 0.545347 0.285715 0.099999
v 0.545347 0.285715 -0.100001
v 1.009632 0.285715 0.099999
v 1.009632 0.285715 -0.100001
v 1.009632 0.142857 0.099999
v 1.009632 0.142857 -0.100001
v 0.295347 0.142858 0.099999
v 0.295347 0.142858 -0.100001
v -0.490368 0.142858 0.099999
v -0.490368 0.142858 -0.100001
v -0.847511 0.142858 0.099999
v -0.847511 0.142858 -0.100001
v -0.990368 0.285715 0.099999
v -0.990368 0.285715 -0.100001
v -0.990368 0.571429 0.099999
v -0.990368 0.571429 -0.100001
v -0.633225 0.571429 0.099999
v -0.633225 0.571429 -0.100001
v -0.490368 0.428572 0.099999
v -0.490368 0.428572 -0.100001
v -0.954654 0.000000 0.099999
v -0.954654 0.000000 -0.100001
v -0.276083 0.000000 0.099999
v -0.276083 0.000000 -0.100001
v -0.276083 0.464286 0.099999
v -0.276083 0.464286 -0.100001
v -0.526083 0.714286 0.099999
v -0.526083 0.714286 -0.100001
v -1.204654 0.714286 0.099999
v -1.204654 0.714286 -0.100001
v -1.204654 0.250001 0.099999
v -1.204654 0.250001 -0.100001
v -1.811797 0.000001 0.099999
v -1.811797 0.000001 -0.100001
v -1.347511 0.000001 0.099999
v -1.347511 0.000001 -0.100001
v -1.347511 0.714286 0.099999
v -1.347511 0.714286 -0.100001
v -1.561797 0.714286 0.099999
v -1.561797 0.714286 -0.100001
v -1.561797 0.142858 0.099999
v -1.561797 0.142858 -0.100001
v -1.704654 0.142858 0.099999
v -1.704654 0.142858 -0.100001
v -2.061797 0.500001 0.099999
v -2.061797 0.500001 -0.100001
v -2.061797 0.714286 0.099999
v -2.061797 0.714286 -0.100001
v -2.276083 0.714286 0.099999
v -2.276083 0.714286 -0.100001
v -2.276083 0.464286 0.099999
v -2.276083 0.464286 -0.100001
v -3.347511 0.000001 0.099999
v -3.347511 0.000001 -0.100001
v -2.418940 0.000001 0.099999
v -2.418940 0.000001 -0.100001
v -2.418940 0.714286 0.099999
v -2.418940 0.714286 -0.100001
v -3.347511 0.714286 0.099999
v -3.347511 0.714286 -0.100001
v -3.347511 0.571429 0.099999
v -3.347511 0.571429 -0.100001
v -2.633225 0.571429 0.099999
v -2.633225 0.571429 -0.100001
v -2.633225 0.428572 0.099999
v -2.633225 0.428572 -0.100001
v -3.240368 0.428572 0.099999
v -3.240368 0.428572 -0.100001
v -3.097511 0.285715 0.099999
v -3.097511 0.285715 -0.100001
v -2.633225 0.285715 0.099999
v -2.633225 0.285715 -0.100001
v -2.633225 0.142858 0.099999
v -2.633225 0.142858 -0.100001
v -3.347511 0.142858 0.099999
v -3.347511 0.142858 -0.100001
v -3.704654 0.357144 0.099999
v -3.704654 0.357144 -0.100001
v -4.061797 0.357144 0.099999
v -4.061797 0.357144 -0.100001
v -4.204654 0.500001 0.099999
v -4.204654 0.500001 -0.100001
v -4.204654 0.571429 0.099999
v -4.204654 0.571429 -0.100001
v -3.704654 0.571429 0.099999
v -3.704654 0.571429 -0.100001
v -3.704654 0.000001 0.099999
v -3.704654 0.000001 -0.100001
v -3.490368 0.000001 0.099999
v -3.490368 0.000001 -0.100001
v -3.490368 0.714286 0.099999
v -3.490368 0.714286 -0.100001
v -4.418940 0.714287 0.099999
v -4.418940 0.714287 -0.100001
v -4.418940 0.464287 0.099999
v -4.418940 0.464287 -0.100001
v -4.311797 0.357144 0.099999
v -4.311797 0.357144 -0.100001
v -4.240368 0.357144 0.099999
v -4.240368 0.357144 -0.100001
v -4.418940 0.178572 0.099999
v -4.418940 0.178572 -0.100001
v -4.418940 0.000001 0.099999
v -4.418940 0.000001 -0.100001
v -4.204654 0.000001 0.099999
v -4.204654 0.000001 -0.100001
v -4.204654 0.142858 0.099999
v -4.204654 0.142858 -0.100001
v -4.133225 0.214287 0.099999
v -4.133225 0.214286 -0.100001
v -3.704654 0.214286 0.099999
v -3.704654 0.214286 -0.100001
vn 0.000000 -0.000000 -1.000000
vn -0.000000 1.000000 0.000000
vn -0.000000 0.000000 1.000000
vn 0.000000 -1.000000 0.000000
vn -0.707083 -0.707083 0.000000
vn 0.707083 -0.707083 0.000000
vn 0.923856 0.382672 0.000000
vn 0.382672 0.923856 0.000000
vn -0.707083 0.707083 0.000000
vn -0.382672 -0.923856 0.000000
vn -0.923856 -0.382672 0.000000
vn 0.707083 0.707083 0.000000
vn 0.923856 -0.382672 0.000000
vn 0.382672 -0.923856 0.000000
vn -0.382672 0.923856 0.000000
vn -0.923856 0.382672 0.000000
s off
f 7//1 5//1 8//1
f 5//1 9//1 8//1
f 5//1 4//1 9//1
f 4//1 10//1 9//1
f 7//1 1//1 5//1
f 3//1 10//1 4//1
f 2//1 10//1 3//1
f 2//1 11//1 10//1
f 7//1 18//1 1//1
f 18//1 2//1 1//1
f 18//1 12//1 2//1
f 12//2 11//2 2//2
f 18//1 17//1 12//1
f 17//1 13//1 12//1
f 7//1 6//1 18//1
f 16//1 13//1 17//1
f 16//1 14//1 13//1
f 15//1 14//1 16//1
f 20//1 24//1 21//1
f 24//1 22//1 21//1
f 24//1 23//1 22//1
f 20//1 25//1 24//1
f 20//1 28//1 25//1
f 28//1 26//1 25//1
f 28//1 27//1 26//1
f 20//1 29//1 28//1
f 20//1 30//1 29//1
f 20//1 19//1 30//1
f 32//1 34//1 33//1
f 32//1 35//1 34//1
f 37//1 39//1 38//1
f 37//1 40//1 39//1
f 36//1 40//1 37//1
f 36//1 31//1 40//1
f 32//1 36//1 35//1
f 32//1 31//1 36//1
f 49//1 45//1 50//1
f 45//1 51//1 50//1
f 45//1 44//1 51//1
f 44//1 52//1 51//1
f 49//1 46//1 45//1
f 43//1 52//1 44//1
f 48//1 46//1 49//1
f 48//1 41//1 46//1
f 42//1 52//1 43//1
f 42//1 47//1 52//1
f 48//1 42//1 41//1
f 48//1 47//1 42//1
f 54//1 58//1 55//1
f 58//1 56//1 55//1
f 58//1 57//1 56//1
f 54//1 59//1 58//1
f 54//1 62//1 59//1
f 62//1 60//1 59//1
f 62//1 61//1 60//1
f 54//1 63//1 62//1
f 54//1 64//1 63//1
f 54//1 53//1 64//1
f 66//1 78//1 67//1
f 78//1 68//1 67//1
f 78//1 77//1 68//1
f 77//1 74//1 68//1
f 74//1 73//1 68//1
f 73//1 69//1 68//1
f 66//1 65//1 78//1
f 76//1 74//1 77//1
f 76//1 75//1 74//1
f 72//1 69//1 73//1
f 72//1 70//1 69//1
f 71//1 70//1 72//1
f 85//1 83//1 86//1
f 83//1 87//1 86//1
f 83//1 82//1 87//1
f 82//1 88//1 87//1
f 85//1 79//1 83//1
f 81//1 88//1 82//1
f 81//1 89//1 88//1
f 80//1 89//1 81//1
f 85//1 92//1 79//1
f 92//1 80//1 79//1
f 92//1 91//1 80//1
f 91//1 89//1 80//1
f 85//1 84//1 92//1
f 90//1 89//1 91//1
f 95//1 99//1 96//1
f 99//1 97//1 96//1
f 99//1 98//1 97//1
f 95//1 100//1 99//1
f 94//1 100//1 95//1
f 94//1 101//1 100//1
f 102//1 104//1 103//1
f 102//1 93//1 104//1
f 94//1 102//1 101//1
f 94//1 93//1 102//1
f 109//3 111//3 112//3
f 113//3 109//3 112//3
f 108//3 109//3 113//3
f 114//3 108//3 113//3
f 105//3 111//3 109//3
f 114//3 107//3 108//3
f 114//3 106//3 107//3
f 115//3 106//3 114//3
f 122//3 111//3 105//3
f 106//3 122//3 105//3
f 116//3 122//3 106//3
f 115//4 116//4 106//4
f 121//3 122//3 116//3
f 117//3 121//3 116//3
f 110//3 111//3 122//3
f 117//3 120//3 121//3
f 118//3 120//3 117//3
f 118//3 119//3 120//3
f 128//3 124//3 125//3
f 126//3 128//3 125//3
f 127//3 128//3 126//3
f 129//3 124//3 128//3
f 132//3 124//3 129//3
f 130//3 132//3 129//3
f 131//3 132//3 130//3
f 133//3 124//3 132//3
f 134//3 124//3 133//3
f 123//3 124//3 134//3
f 138//3 136//3 137//3
f 139//3 136//3 138//3
f 143//3 141//3 142//3
f 144//3 141//3 143//3
f 144//3 140//3 141//3
f 135//3 140//3 144//3
f 140//3 136//3 139//3
f 135//3 136//3 140//3
f 149//3 153//3 154//3
f 155//3 149//3 154//3
f 148//3 149//3 155//3
f 156//3 148//3 155//3
f 150//3 153//3 149//3
f 156//3 147//3 148//3
f 150//3 152//3 153//3
f 145//3 152//3 150//3
f 156//3 146//3 147//3
f 151//3 146//3 156//3
f 146//3 152//3 145//3
f 151//3 152//3 146//3
f 162//3 158//3 159//3
f 160//3 162//3 159//3
f 161//3 162//3 160//3
f 163//3 158//3 162//3
f 166//3 158//3 163//3
f 164//3 166//3 163//3
f 165//3 166//3 164//3
f 167//3 158//3 166//3
f 168//3 158//3 167//3
f 157//3 158//3 168//3
f 182//3 170//3 171//3
f 172//3 182//3 171//3
f 181//3 182//3 172//3
f 178//3 181//3 172//3
f 177//3 178//3 172//3
f 173//3 177//3 172//3
f 169//3 170//3 182//3
f 178//3 180//3 181//3
f 179//3 180//3 178//3
f 173//3 176//3 177//3
f 174//3 176//3 173//3
f 174//3 175//3 176//3
f 187//3 189//3 190//3
f 191//3 187//3 190//3
f 186//3 187//3 191//3
f 192//3 186//3 191//3
f 183//3 189//3 187//3
f 192//3 185//3 186//3
f 193//3 185//3 192//3
f 193//3 184//3 185//3
f 196//3 189//3 183//3
f 184//3 196//3 183//3
f 195//3 196//3 184//3
f 193//3 195//3 184//3
f 188//3 189//3 196//3
f 193//3 194//3 195//3
f 203//3 199//3 200//3
f 201//3 203//3 200//3
f 202//3 203//3 201//3
f 204//3 199//3 203//3
f 204//3 198//3 199//3
f 205//3 198//3 204//3
f 208//3 206//3 207//3
f 197//3 206//3 208//3
f 206//3 198//3 205//3
f 197//3 198//3 206//3
s 1
f 210//5 212//6 211//6
f 212//6 214//7 213//7
f 214//7 216//8 215//8
f 216//8 218//9 217//9
f 218//9 220//5 219//5
f 220//5 222//10 221//10
f 222//10 224//11 223//11
f 224//11 226//9 225//9
f 226//9 228//12 227//12
f 228//12 230//12 229//12
f 230//12 232//9 231//9
f 232//9 210//5 209//5
f 234//9 236//12 235//12
f 236//12 238//13 237//13
f 238//13 240//14 239//14
f 240//14 242//5 241//5
f 242//5 234//9 233//9
f 244//5 246//6 245//6
f 246//6 248//12 247//12
f 248//12 250//15 249//15
f 250//15 252//16 251//16
f 252//16 254//5 253//5
f 254//5 256//6 255//6
f 256//6 258//6 257//6
f 258//6 260//5 259//5
f 260//5 244//5 243//5
f 262//5 264//6 263//6
f 264//6 266//12 265//12
f 266//12 268//15 267//15
f 268//15 270//16 269//16
f 270//16 272//5 271//5
f 272//5 274//6 273//6
f 274//6 276//13 275//13
f 276//13 278//14 277//14
f 278//14 280//5 279//5
f 280//5 282//5 281//5
f 282//5 284//6 283//6
f 284//6 286//6 285//6
f 286//6 288//5 287//5
f 288//5 262//5 261//5
f 290//5 292//6 291//6
f 292//6 294//12 293//12
f 294//12 296//9 295//9
f 296//9 298//5 297//5
f 298//5 300//5 299//5
f 300//5 302//9 301//9
f 302//9 304//16 303//16
f 304//16 306//10 305//10
f 306//10 308//5 307//5
f 308//5 310//9 309//9
f 310//9 312//9 311//9
f 312//9 290//5 289//5
f 314//9 316//8 315//8
f 316//8 318//7 317//7
f 318//7 320//6 319//6
f 320//6 322//10 321//10
f 322//10 324//11 323//11
f 324//11 314//9 313//9
f 326//10 328//6 327//6
f 328//6 330//7 329//7
f 330//7 332//8 331//8
f 332//8 334//9 333//9
f 334//9 336//11 335//11
f 336//11 326//10 325//10
f 338//10 340//6 339//6
f 340//6 342//12 341//12
f 342//12 344//9 343//9
f 344//9 346//9 345//9
f 346//9 348//8 347//8
f 348//8 350//7 349//7
f 350//7 352//12 351//12
f 352//12 354//9 353//9
f 354//9 356//11 355//11
f 356//11 338//10 337//10
f 358//5 360//6 359//6
f 360//6 362//12 361//12
f 362//12 364//9 363//9
f 364//9 366//5 365//5
f 366//5 368//5 367//5
f 368//5 370//9 369//9
f 370//9 372//16 371//16
f 372//16 374//10 373//10
f 374//10 376//5 375//5
f 376//5 378//9 377//9
f 378//9 380//9 379//9
f 380//9 358//5 357//5
f 382//9 384//8 383//8
f 384//8 386//7 385//7
f 386//7 388//6 387//6
f 388//6 390//5 389//5
f 390//5 382//9 381//9
f 392//5 394//6 393//6
f 394//6 396//12 395//12
f 396//12 398//9 397//9
f 398//9 400//11 399//11
f 400//11 402//10 401//10
f 402//10 404//11 403//11
f 404//11 406//16 405//16
f 406//16 408//5 407//5
f 408//5 410//6 409//6
f 410//6 412//13 411//13
f 412//13 414//14 413//14
f 414//14 416//5 415//5
f 416//5 392//5 391//5
f 209//5 210//5 211//6
f 211//6 212//6 213//7
f 213//7 214//7 215//8
f 215//8 216//8 217//9
f 217//9 218//9 219//5
f 219//5 220//5 221//10
f 221//10 222//10 223//11
f 223//11 224//11 225//9
f 225//9 226//9 227//12
f 227//12 228//12 229//12
f 229//12 230//12 231//9
f 231//9 232//9 209//5
f 233//9 234//9 235//12
f 235//12 236//12 237//13
f 237//13 238//13 239//14
f 239//14 240//14 241//5
f 241//5 242//5 233//9
f 243//5 244//5 245//6
f 245//6 246//6 247//12
f 247//12 248//12 249//15
f 249//15 250//15 251//16
f 251//16 252//16 253//5
f 253//5 254//5 255//6
f 255//6 256//6 257//6
f 257//6 258//6 259//5
f 259//5 260//5 243//5
f 261//5 262//5 263//6
f 263//6 264//6 265//12
f 265//12 266//12 267//15
f 267//15 268//15 269//16
f 269//16 270//16 271//5
f 271//5 272//5 273//6
f 273//6 274//6 275//13
f 275//13 276//13 277//14
f 277//14 278//14 279//5
f 279//5 280//5 281//5
f 281//5 282//5 283//6
f 283//6 284//6 285//6
f 285//6 286//6 287//5
f 287//5 288//5 261//5
f 289//5 290//5 291//6
f 291//6 292//6 293//12
f 293//12 294//12 295//9
f 295//9 296//9 297//5
f 297//5 298//5 299//5
f 299//5 300//5 301//9
f 301//9 302//9 303//16
f 303//16 304//16 305//10
f 305//10 306//10 307//5
f 307//5 308//5 309//9
f 309//9 310//9 311//9
f 311//9 312//9 289//5
f 313//9 314//9 315//8
f 315//8 316//8 317//7
f 317//7 318//7 319//6
f 319//6 320//6 321//10
f 321//10 322//10 323//11
f 323//11 324//11 313//9
f 325//10 326//10 327//6
f 327//6 328//6 329//7
f 329//7 330//7 331//8
f 331//8 332//8 333//9
f 333//9 334//9 335//11
f 335//11 336//11 325//10
f 337//10 338//10 339//6
f 339//6 340//6 341//12
f 341//12 342//12 343//9
f 343//9 344//9 345//9
f 345//9 346//9 347//8
f 347//8 348//8 349//7
f 349//7 350//7 351//12
f 351//12 352//12 353//9
f 353//9 354//9 355//11
f 355//11 356//11 337//10
f 357//5 358//5 359//6
f 359//6 360//6 361//12
f 361//12 362//12 363//9
f 363//9 364//9 365//5
f 365//5 366//5 367//5
f 367//5 368//5 369//9
f 369//9 370//9 371//16
f 371//16 372//16 373//10
f 373//10 374//10 375//5
f 375//5 376//5 377//9
f 377//9 378//9 379//9
f 379//9 380//9 357//5
f 381//9 382//9 383//8
f 383//8 384//8 385//7
f 385//7 386//7 387//6
f 387//6 388//6 389//5
f 389//5 390//5 381//9
f 391//5 392//5 393//6
f 393//6 394//6 395//12
f 395//12 396//12 397//9
f 397//9 398//9 399//11
f 399//11 400//11 401//10
f 401//10 402//10 403//11
f 403//11 404//11 405//16
f 405//16 406//16 407//5
f 407//5 408//5 409//6
f 409//6 410//6 411//13
f 411//13 412//13 413//14
f 413//14 414//14 415//5
f 415//5 416//5 391//5
