# Blender v2.67 (sub 0) OBJ File: 'title.blend'
# www.blender.org
mtllib title.mtl
o Text_Text.001
v -4.345289 0.029929 0.113206
v -3.416718 0.029929 0.113205
v -3.416718 0.494215 0.113205
v -3.666718 0.744215 0.113205
v -4.345289 0.744215 0.113206
v -4.345289 0.601358 0.113206
v -3.773861 0.601358 0.113205
v -3.631004 0.458501 0.113205
v -4.238147 0.458501 0.113206
v -4.095290 0.315643 0.113206
v -3.631004 0.315643 0.113205
v -3.631004 0.172786 0.113205
v -4.345289 0.172786 0.113206
v -2.559575 0.172786 0.113204
v -3.059575 0.172786 0.113204
v -3.059575 0.244215 0.113204
v -2.988147 0.315643 0.113204
v -2.559575 0.315643 0.113204
v -2.559575 0.458501 0.113204
v -2.916718 0.458501 0.113204
v -3.059575 0.601358 0.113204
v -2.559575 0.601358 0.113204
v -3.273861 0.029929 0.113205
v -2.345290 0.029929 0.113203
v -2.345290 0.744215 0.113203
v -3.273861 0.744215 0.113205
v -3.273861 0.565643 0.113205
v -3.166718 0.458501 0.113204
v -3.095290 0.458501 0.113204
v -3.273861 0.279929 0.113205
v -2.202432 0.029929 0.113203
v -1.523861 0.029929 0.113202
v -1.273861 0.279929 0.113202
v -1.273861 0.744215 0.113202
v -1.488146 0.744215 0.113202
v -1.488146 0.315643 0.113202
v -1.631003 0.172786 0.113202
v -1.988146 0.172786 0.113203
v -1.988146 0.744215 0.113203
v -2.202432 0.744215 0.113203
v -0.773860 0.029929 0.113201
v -0.559575 0.029929 0.113201
v -0.559575 0.601358 0.113201
v -0.202432 0.601358 0.113201
v -0.202432 0.744215 0.113201
v -1.131003 0.744215 0.113202
v -1.131003 0.601358 0.113202
v -0.773860 0.601358 0.113201
v 1.083282 0.387072 0.113199
v 0.726139 0.387072 0.113199
v 0.583282 0.529929 0.113199
v 0.583282 0.601358 0.113199
v 1.083282 0.601358 0.113199
v 1.083282 0.029929 0.113199
v 1.297568 0.029929 0.113198
v 1.297568 0.744215 0.113199
v 0.368997 0.744215 0.113200
v 0.368997 0.494215 0.113200
v 0.476140 0.387072 0.113200
v 0.547568 0.387072 0.113200
v 0.368997 0.208501 0.113200
v 0.368997 0.029929 0.113200
v 0.583282 0.029929 0.113199
v 0.583282 0.172786 0.113199
v 0.654711 0.244215 0.113199
v 1.083282 0.244215 0.113199
v 1.440425 0.029929 0.113198
v 2.368996 0.029929 0.113197
v 2.368996 0.494215 0.113197
v 2.118996 0.744215 0.113197
v 1.440425 0.744215 0.113198
v 1.440425 0.601358 0.113198
v 2.011853 0.601358 0.113198
v 2.154711 0.458501 0.113197
v 1.547568 0.458501 0.113198
v 1.690425 0.315643 0.113198
v 2.154711 0.315643 0.113197
v 2.154711 0.172786 0.113197
v 1.440425 0.172786 0.113198
v 3.226140 0.172786 0.113196
v 2.726140 0.172786 0.113197
v 2.726140 0.244215 0.113197
v 2.797568 0.315643 0.113196
v 3.226140 0.315643 0.113196
v 3.226140 0.458501 0.113196
v 2.868997 0.458501 0.113196
v 2.726140 0.601358 0.113197
v 3.226140 0.601358 0.113196
v 2.511853 0.029929 0.113197
v 3.440425 0.029929 0.113196
v 3.440425 0.744215 0.113196
v 2.511853 0.744215 0.113197
v 2.511853 0.565643 0.113197
v 2.618997 0.458501 0.113197
v 2.690425 0.458501 0.113197
v 2.511853 0.279929 0.113197
v 3.583282 0.029929 0.113195
v 4.261854 0.029929 0.113194
v 4.511854 0.279929 0.113194
v 4.511854 0.744215 0.113194
v 4.297568 0.744215 0.113194
v 4.297568 0.315643 0.113194
v 4.154711 0.172786 0.113195
v 3.797568 0.172786 0.113195
v 3.797568 0.744215 0.113195
v 3.583282 0.744215 0.113195
v -4.345289 0.029929 0.313206
v -3.416718 0.029929 0.313205
v -3.416718 0.494215 0.313205
v -3.666718 0.744215 0.313205
v -4.345289 0.744215 0.313206
v -4.345289 0.601358 0.313206
v -3.773861 0.601358 0.313205
v -3.631004 0.458501 0.313205
v -4.238147 0.458501 0.313206
v -4.095290 0.315643 0.313206
v -3.631004 0.315643 0.313205
v -3.631004 0.172786 0.313205
v -4.345289 0.172786 0.313206
v -2.559575 0.172786 0.313204
v -3.059575 0.172786 0.313204
v -3.059575 0.244215 0.313204
v -2.988147 0.315643 0.313204
v -2.559575 0.315643 0.313204
v -2.559575 0.458501 0.313204
v -2.916718 0.458501 0.313204
v -3.059575 0.601358 0.313204
v -2.559575 0.601358 0.313204
v -3.273861 0.029929 0.313205
v -2.345290 0.029929 0.313203
v -2.345290 0.744215 0.313203
v -3.273861 0.744215 0.313205
v -3.273861 0.565643 0.313205
v -3.166718 0.458501 0.313204
v -3.095290 0.458501 0.313204
v -3.273861 0.279929 0.313205
v -2.202432 0.029929 0.313203
v -1.523861 0.029929 0.313202
v -1.273861 0.279929 0.313202
v -1.273861 0.744215 0.313202
v -1.488146 0.744215 0.313202
v -1.488146 0.315643 0.313202
v -1.631003 0.172786 0.313202
v -1.988146 0.172786 0.313203
v -1.988146 0.744215 0.313203
v -2.202432 0.744215 0.313203
v -0.773860 0.029929 0.313201
v -0.559575 0.029929 0.313201
v -0.559575 0.601358 0.313201
v -0.202432 0.601358 0.313201
v -0.202432 0.744215 0.313201
v -1.131003 0.744215 0.313202
v -1.131003 0.601358 0.313202
v -0.773860 0.601358 0.313201
v 1.083282 0.387072 0.313199
v 0.726140 0.387072 0.313199
v 0.583283 0.529929 0.313199
v 0.583283 0.601358 0.313199
v 1.083282 0.601358 0.313199
v 1.083282 0.029929 0.313199
v 1.297568 0.029929 0.313198
v 1.297568 0.744215 0.313199
v 0.368997 0.744215 0.313200
v 0.368997 0.494215 0.313200
v 0.476140 0.387072 0.313200
v 0.547568 0.387072 0.313200
v 0.368997 0.208501 0.313200
v 0.368997 0.029929 0.313200
v 0.583283 0.029929 0.313199
v 0.583283 0.172786 0.313199
v 0.654711 0.244215 0.313199
v 1.083282 0.244215 0.313199
v 1.440425 0.029929 0.313198
v 2.368997 0.029929 0.313197
v 2.368997 0.494215 0.313197
v 2.118997 0.744215 0.313197
v 1.440425 0.744215 0.313198
v 1.440425 0.601358 0.313198
v 2.011854 0.601358 0.313198
v 2.154711 0.458501 0.313197
v 1.547568 0.458501 0.313198
v 1.690425 0.315643 0.313198
v 2.154711 0.315643 0.313197
v 2.154711 0.172786 0.313197
v 1.440425 0.172786 0.313198
v 3.226140 0.172786 0.313196
v 2.726140 0.172786 0.313197
v 2.726140 0.244215 0.313197
v 2.797568 0.315643 0.313196
v 3.226140 0.315643 0.313196
v 3.226140 0.458501 0.313196
v 2.868997 0.458501 0.313196
v 2.726140 0.601358 0.313197
v 3.226140 0.601358 0.313196
v 2.511854 0.029929 0.313197
v 3.440425 0.029929 0.313196
v 3.440425 0.744215 0.313196
v 2.511854 0.744215 0.313197
v 2.511854 0.565643 0.313197
v 2.618997 0.458501 0.313197
v 2.690425 0.458501 0.313197
v 2.511854 0.279929 0.313197
v 3.583282 0.029929 0.313195
v 4.261854 0.029929 0.313194
v 4.511854 0.279929 0.313194
v 4.511854 0.744215 0.313194
v 4.297568 0.744215 0.313195
v 4.297568 0.315643 0.313194
v 4.154711 0.172786 0.313195
v 3.797568 0.172786 0.313195
v 3.797568 0.744215 0.313195
v 3.583282 0.744215 0.313195
v 3.583282 0.029929 0.313195
v 3.583282 0.029929 0.113195
v 4.261854 0.029929 0.313194
v 4.261854 0.029929 0.113194
v 4.511854 0.279929 0.313194
v 4.511854 0.279929 0.113194
v 4.511854 0.744215 0.313194
v 4.511854 0.744215 0.113194
v 4.297568 0.744215 0.313195
v 4.297568 0.744215 0.113194
v 4.297568 0.315643 0.313194
v 4.297568 0.315643 0.113194
v 4.154711 0.172786 0.313195
v 4.154711 0.172786 0.113195
v 3.797568 0.172786 0.313195
v 3.797568 0.172786 0.113195
v 3.797568 0.744215 0.313195
v 3.797568 0.744215 0.113195
v 3.583282 0.744215 0.313195
v 3.583282 0.744215 0.113195
v 3.226140 0.172786 0.313196
v 3.226140 0.172786 0.113196
v 2.726140 0.172786 0.313197
v 2.726140 0.172786 0.113197
v 2.726140 0.244215 0.313197
v 2.726140 0.244215 0.113197
v 2.797568 0.315643 0.313196
v 2.797568 0.315643 0.113196
v 3.226140 0.315643 0.313196
v 3.226140 0.315643 0.113196
v 3.226140 0.458501 0.313196
v 3.226140 0.458501 0.113196
v 2.868997 0.458501 0.313196
v 2.868997 0.458501 0.113196
v 2.726140 0.601358 0.313197
v 2.726140 0.601358 0.113197
v 3.226140 0.601358 0.313196
v 3.226140 0.601358 0.113196
v 2.511854 0.029929 0.313197
v 2.511853 0.029929 0.113197
v 3.440425 0.029929 0.313196
v 3.440425 0.029929 0.113196
v 3.440425 0.744215 0.313196
v 3.440425 0.744215 0.113196
v 2.511854 0.744215 0.313197
v 2.511853 0.744215 0.113197
v 2.511854 0.565643 0.313197
v 2.511853 0.565643 0.113197
v 2.618997 0.458501 0.313197
v 2.618997 0.458501 0.113197
v 2.690425 0.458501 0.313197
v 2.690425 0.458501 0.113197
v 2.511854 0.279929 0.313197
v 2.511853 0.279929 0.113197
v 1.440425 0.029929 0.313198
v 1.440425 0.029929 0.113198
v 2.368997 0.029929 0.313197
v 2.368996 0.029929 0.113197
v 2.368997 0.494215 0.313197
v 2.368996 0.494215 0.113197
v 2.118997 0.744215 0.313197
v 2.118996 0.744215 0.113197
v 1.440425 0.744215 0.313198
v 1.440425 0.744215 0.113198
v 1.440425 0.601358 0.313198
v 1.440425 0.601358 0.113198
v 2.011854 0.601358 0.313198
v 2.011853 0.601358 0.113198
v 2.154711 0.458501 0.313197
v 2.154711 0.458501 0.113197
v 1.547568 0.458501 0.313198
v 1.547568 0.458501 0.113198
v 1.690425 0.315643 0.313198
v 1.690425 0.315643 0.113198
v 2.154711 0.315643 0.313197
v 2.154711 0.315643 0.113197
v 2.154711 0.172786 0.313197
v 2.154711 0.172786 0.113197
v 1.440425 0.172786 0.313198
v 1.440425 0.172786 0.113198
v 1.083282 0.387072 0.313199
v 1.083282 0.387072 0.113199
v 0.726140 0.387072 0.313199
v 0.726139 0.387072 0.113199
v 0.583283 0.529929 0.313199
v 0.583282 0.529929 0.113199
v 0.583283 0.601358 0.313199
v 0.583282 0.601358 0.113199
v 1.083282 0.601358 0.313199
v 1.083282 0.601358 0.113199
v 1.083282 0.029929 0.313199
v 1.083282 0.029929 0.113199
v 1.297568 0.029929 0.313198
v 1.297568 0.029929 0.113198
v 1.297568 0.744215 0.313199
v 1.297568 0.744215 0.113199
v 0.368997 0.744215 0.313200
v 0.368997 0.744215 0.113200
v 0.368997 0.494215 0.313200
v 0.368997 0.494215 0.113200
v 0.476140 0.387072 0.313200
v 0.476140 0.387072 0.113200
v 0.547568 0.387072 0.313200
v 0.547568 0.387072 0.113200
v 0.368997 0.208501 0.313200
v 0.368997 0.208501 0.113200
v 0.368997 0.029929 0.313200
v 0.368997 0.029929 0.113200
v 0.583283 0.029929 0.313199
v 0.583282 0.029929 0.113199
v 0.583283 0.172786 0.313199
v 0.583282 0.172786 0.113199
v 0.654711 0.244215 0.313199
v 0.654711 0.244215 0.113199
v 1.083282 0.244215 0.313199
v 1.083282 0.244215 0.113199
v -0.773860 0.029929 0.313201
v -0.773860 0.029929 0.113201
v -0.559575 0.029929 0.313201
v -0.559575 0.029929 0.113201
v -0.559575 0.601358 0.313201
v -0.559575 0.601358 0.113201
v -0.202432 0.601358 0.313201
v -0.202432 0.601358 0.113201
v -0.202432 0.744215 0.313201
v -0.202432 0.744215 0.113201
v -1.131003 0.744215 0.313202
v -1.131003 0.744215 0.113202
v -1.131003 0.601358 0.313202
v -1.131003 0.601358 0.113202
v -0.773860 0.601358 0.313201
v -0.773860 0.601358 0.113201
v -2.202432 0.029929 0.313203
v -2.202432 0.029929 0.113203
v -1.523861 0.029929 0.313202
v -1.523861 0.029929 0.113202
v -1.273861 0.279929 0.313202
v -1.273861 0.279929 0.113202
v -1.273861 0.744215 0.313202
v -1.273861 0.744215 0.113202
v -1.488146 0.744215 0.313202
v -1.488146 0.744215 0.113202
v -1.488146 0.315643 0.313202
v -1.488146 0.315643 0.113202
v -1.631003 0.172786 0.313202
v -1.631003 0.172786 0.113202
v -1.988146 0.172786 0.313203
v -1.988146 0.172786 0.113203
v -1.988146 0.744215 0.313203
v -1.988146 0.744215 0.113203
v -2.202432 0.744215 0.313203
v -2.202432 0.744215 0.113203
v -2.559575 0.172786 0.313204
v -2.559575 0.172786 0.113204
v -3.059575 0.172786 0.313204
v -3.059575 0.172786 0.113204
v -3.059575 0.244215 0.313204
v -3.059575 0.244215 0.113204
v -2.988147 0.315643 0.313204
v -2.988147 0.315643 0.113204
v -2.559575 0.315643 0.313204
v -2.559575 0.315643 0.113204
v -2.559575 0.458501 0.313204
v -2.559575 0.458501 0.113204
v -2.916718 0.458501 0.313204
v -2.916718 0.458501 0.113204
v -3.059575 0.601358 0.313204
v -3.059575 0.601358 0.113204
v -2.559575 0.601358 0.313204
v -2.559575 0.601358 0.113204
v -3.273861 0.029929 0.313205
v -3.273861 0.029929 0.113205
v -2.345290 0.029929 0.313203
v -2.345290 0.029929 0.113203
v -2.345290 0.744215 0.313203
v -2.345290 0.744215 0.113203
v -3.273861 0.744215 0.313205
v -3.273861 0.744215 0.113205
v -3.273861 0.565643 0.313205
v -3.273861 0.565643 0.113205
v -3.166718 0.458501 0.313204
v -3.166718 0.458501 0.113204
v -3.095290 0.458501 0.313204
v -3.095290 0.458501 0.113204
v -3.273861 0.279929 0.313205
v -3.273861 0.279929 0.113205
v -4.345289 0.029929 0.313206
v -4.345289 0.029929 0.113206
v -3.416718 0.029929 0.313205
v -3.416718 0.029929 0.113205
v -3.416718 0.494215 0.313205
v -3.416718 0.494215 0.113205
v -3.666718 0.744215 0.313205
v -3.666718 0.744215 0.113205
v -4.345289 0.744215 0.313206
v -4.345289 0.744215 0.113206
v -4.345289 0.601358 0.313206
v -4.345289 0.601358 0.113206
v -3.773861 0.601358 0.313205
v -3.773861 0.601358 0.113205
v -3.631004 0.458501 0.313205
v -3.631004 0.458501 0.113205
v -4.238147 0.458501 0.313206
v -4.238147 0.458501 0.113206
v -4.095290 0.315643 0.313206
v -4.095290 0.315643 0.113206
v -3.631004 0.315643 0.313205
v -3.631004 0.315643 0.113205
v -3.631004 0.172786 0.313205
v -3.631004 0.172786 0.113205
v -4.345289 0.172786 0.313206
v -4.345289 0.172786 0.113206
vn -0.000001 0.000000 -1.000000
vn 0.000000 -1.000000 0.000000
vn 0.000000 1.000000 0.000000
vn 0.000001 -0.000000 1.000000
vn 0.000002 0.000000 1.000000
vn -0.707083 -0.707083 0.000000
vn 0.382672 -0.923856 0.000000
vn 0.923856 -0.382672 0.000000
vn 0.707083 0.707083 0.000000
vn -0.707083 0.707083 0.000000
vn -0.923856 0.382672 0.000000
vn -0.382672 0.923856 0.000000
vn 0.382672 0.923856 0.000000
vn 0.707083 -0.707083 0.000000
vn -0.923856 -0.382672 0.000000
vn -0.382672 -0.923856 0.000000
vn 0.923856 0.382672 0.000000
usemtl None
s off
f 3//1 7//1 4//1
f 7//1 5//1 4//1
f 7//1 6//1 5//1
f 3//1 8//1 7//1
f 2//1 8//1 3//1
f 2//1 11//1 8//1
f 11//1 9//1 8//1
f 11//1 10//1 9//1
f 2//1 12//1 11//1
f 2//1 13//1 12//1
f 2//1 1//1 13//1
f 24//1 22//1 25//1
f 22//1 26//1 25//1
f 22//1 21//1 26//1
f 21//1 27//1 26//1
f 24//1 19//1 22//1
f 20//1 27//1 21//1
f 20//1 28//1 27//1
f 24//1 18//1 19//1
f 18//1 20//1 19//1
f 18//1 29//1 20//1
f 29//2 28//2 20//2
f 18//1 17//1 29//1
f 17//1 30//1 29//1
f 24//1 14//1 18//1
f 16//1 30//1 17//1
f 16//1 23//1 30//1
f 15//1 23//1 16//1
f 24//1 15//1 14//1
f 24//1 23//1 15//1
f 33//1 35//1 34//1
f 33//1 36//1 35//1
f 38//1 40//1 39//1
f 38//1 31//1 40//1
f 33//1 37//1 36//1
f 32//1 37//1 33//1
f 32//1 38//1 37//1
f 32//1 31//1 38//1
f 44//1 46//1 45//1
f 44//1 47//1 46//1
f 43//2 47//2 44//2
f 42//1 48//1 43//1
f 48//2 47//2 43//2
f 42//1 41//1 48//1
f 55//1 53//1 56//1
f 53//1 57//1 56//1
f 53//1 52//1 57//1
f 52//1 58//1 57//1
f 55//1 49//1 53//1
f 51//1 58//1 52//1
f 50//1 58//1 51//1
f 50//1 59//1 58//1
f 55//1 66//1 49//1
f 66//1 50//1 49//1
f 66//1 60//1 50//1
f 60//3 59//3 50//3
f 66//1 65//1 60//1
f 65//1 61//1 60//1
f 55//1 54//1 66//1
f 64//1 61//1 65//1
f 64//1 62//1 61//1
f 63//1 62//1 64//1
f 69//1 73//1 70//1
f 73//1 71//1 70//1
f 73//1 72//1 71//1
f 69//1 74//1 73//1
f 68//1 74//1 69//1
f 68//1 77//1 74//1
f 77//1 75//1 74//1
f 77//1 76//1 75//1
f 68//1 78//1 77//1
f 68//1 79//1 78//1
f 68//1 67//1 79//1
f 90//1 88//1 91//1
f 88//1 92//1 91//1
f 88//1 87//1 92//1
f 87//1 93//1 92//1
f 90//1 85//1 88//1
f 86//1 93//1 87//1
f 86//1 94//1 93//1
f 90//1 84//1 85//1
f 84//1 86//1 85//1
f 84//1 95//1 86//1
f 95//2 94//2 86//2
f 84//1 83//1 95//1
f 83//1 96//1 95//1
f 90//1 80//1 84//1
f 82//1 96//1 83//1
f 82//1 89//1 96//1
f 81//1 89//1 82//1
f 90//1 81//1 80//1
f 90//1 89//1 81//1
f 99//1 101//1 100//1
f 99//1 102//1 101//1
f 104//1 106//1 105//1
f 104//1 97//1 106//1
f 99//1 103//1 102//1
f 98//1 103//1 99//1
f 98//1 104//1 103//1
f 98//1 97//1 104//1
f 113//4 109//4 110//4
f 111//4 113//4 110//4
f 112//4 113//4 111//4
f 114//4 109//4 113//4
f 114//4 108//4 109//4
f 117//5 108//5 114//5
f 115//4 117//4 114//4
f 116//4 117//4 115//4
f 118//4 108//4 117//4
f 119//4 108//4 118//4
f 107//4 108//4 119//4
f 128//4 130//4 131//4
f 132//4 128//4 131//4
f 127//4 128//4 132//4
f 133//4 127//4 132//4
f 125//5 130//5 128//5
f 133//4 126//4 127//4
f 134//4 126//4 133//4
f 124//5 130//5 125//5
f 126//4 124//4 125//4
f 135//4 124//4 126//4
f 134//3 135//3 126//3
f 123//4 124//4 135//4
f 136//4 123//4 135//4
f 120//4 130//4 124//4
f 136//4 122//4 123//4
f 129//4 122//4 136//4
f 129//4 121//4 122//4
f 121//4 130//4 120//4
f 129//4 130//4 121//4
f 141//4 139//4 140//4
f 142//4 139//4 141//4
f 146//4 144//4 145//4
f 137//4 144//4 146//4
f 143//4 139//4 142//4
f 143//4 138//4 139//4
f 144//4 138//4 143//4
f 137//4 138//4 144//4
f 152//4 150//4 151//4
f 153//4 150//4 152//4
f 153//2 149//2 150//2
f 154//4 148//4 149//4
f 153//3 154//3 149//3
f 147//4 148//4 154//4
f 159//4 161//4 162//4
f 163//4 159//4 162//4
f 158//4 159//4 163//4
f 164//4 158//4 163//4
f 155//5 161//5 159//5
f 164//4 157//4 158//4
f 164//4 156//4 157//4
f 165//4 156//4 164//4
f 172//4 161//4 155//4
f 156//4 172//4 155//4
f 166//4 172//4 156//4
f 165//3 166//3 156//3
f 171//4 172//4 166//4
f 167//4 171//4 166//4
f 160//4 161//4 172//4
f 167//4 170//4 171//4
f 168//4 170//4 167//4
f 168//4 169//4 170//4
f 179//4 175//4 176//4
f 177//4 179//4 176//4
f 178//4 179//4 177//4
f 180//4 175//4 179//4
f 180//4 174//4 175//4
f 183//5 174//5 180//5
f 181//4 183//4 180//4
f 182//4 183//4 181//4
f 184//4 174//4 183//4
f 185//4 174//4 184//4
f 173//4 174//4 185//4
f 194//4 196//4 197//4
f 198//4 194//4 197//4
f 193//4 194//4 198//4
f 199//4 193//4 198//4
f 191//5 196//5 194//5
f 199//4 192//4 193//4
f 200//4 192//4 199//4
f 190//5 196//5 191//5
f 192//4 190//4 191//4
f 201//4 190//4 192//4
f 200//3 201//3 192//3
f 189//4 190//4 201//4
f 202//4 189//4 201//4
f 186//4 196//4 190//4
f 202//4 188//4 189//4
f 195//4 188//4 202//4
f 195//4 187//4 188//4
f 187//4 196//4 186//4
f 195//4 196//4 187//4
f 207//4 205//4 206//4
f 208//4 205//4 207//4
f 212//4 210//4 211//4
f 203//4 210//4 212//4
f 209//4 205//4 208//4
f 209//4 204//4 205//4
f 210//4 204//4 209//4
f 203//4 204//4 210//4
s 1
f 214//6 216//7 215//7
f 216//7 218//8 217//8
f 218//8 220//9 219//9
f 220//9 222//10 221//10
f 222//10 224//11 223//11
f 224//11 226//12 225//12
f 226//12 228//9 227//9
f 228//9 230//9 229//9
f 230//9 232//10 231//10
f 232//10 214//6 213//6
f 234//10 236//9 235//9
f 236//9 238//8 237//8
f 238//8 240//7 239//7
f 240//7 242//6 241//6
f 242//6 234//10 233//10
f 244//10 246//13 245//13
f 246//13 248//8 247//8
f 248//8 250//6 249//6
f 250//6 244//10 243//10
f 252//6 254//14 253//14
f 254//14 256//9 255//9
f 256//9 258//10 257//10
f 258//10 260//15 259//15
f 260//15 262//16 261//16
f 262//16 264//15 263//15
f 264//15 266//11 265//11
f 266//11 252//6 251//6
f 268//6 270//14 269//14
f 270//14 272//17 271//17
f 272//17 274//13 273//13
f 274//13 276//10 275//10
f 276//10 278//6 277//6
f 278//6 280//16 279//16
f 280//16 282//11 281//11
f 282//11 284//11 283//11
f 284//11 286//16 285//16
f 286//16 288//6 287//6
f 288//6 290//10 289//10
f 290//10 292//10 291//10
f 292//10 268//6 267//6
f 294//10 296//13 295//13
f 296//13 298//17 297//17
f 298//17 300//14 299//14
f 300//14 302//6 301//6
f 302//6 294//10 293//10
f 304//6 306//14 305//14
f 306//14 308//9 307//9
f 308//9 310//10 309//10
f 310//10 312//15 311//15
f 312//15 314//16 313//16
f 314//16 316//15 315//15
f 316//15 318//11 317//11
f 318//11 320//6 319//6
f 320//6 322//14 321//14
f 322//14 324//8 323//8
f 324//8 326//7 325//7
f 326//7 328//6 327//6
f 328//6 304//6 303//6
f 330//6 332//14 331//14
f 332//14 334//14 333//14
f 334//14 336//14 335//14
f 336//14 338//9 337//9
f 338//9 340//10 339//10
f 340//10 342//6 341//6
f 342//6 344//6 343//6
f 344//6 330//6 329//6
f 346//6 348//7 347//7
f 348//7 350//8 349//8
f 350//8 352//9 351//9
f 352//9 354//10 353//10
f 354//10 356//11 355//11
f 356//11 358//12 357//12
f 358//12 360//9 359//9
f 360//9 362//9 361//9
f 362//9 364//10 363//10
f 364//10 346//6 345//6
f 366//10 368//9 367//9
f 368//9 370//8 369//8
f 370//8 372//7 371//7
f 372//7 374//6 373//6
f 374//6 366//10 365//10
f 376//10 378//13 377//13
f 378//13 380//8 379//8
f 380//8 382//6 381//6
f 382//6 376//10 375//10
f 384//6 386//14 385//14
f 386//14 388//9 387//9
f 388//9 390//10 389//10
f 390//10 392//15 391//15
f 392//15 394//16 393//16
f 394//16 396//15 395//15
f 396//15 398//11 397//11
f 398//11 384//6 383//6
f 400//6 402//14 401//14
f 402//14 404//17 403//17
f 404//17 406//13 405//13
f 406//13 408//10 407//10
f 408//10 410//6 409//6
f 410//6 412//16 411//16
f 412//16 414//11 413//11
f 414//11 416//11 415//11
f 416//11 418//16 417//16
f 418//16 420//6 419//6
f 420//6 422//10 421//10
f 422//10 424//10 423//10
f 424//10 400//6 399//6
f 213//6 214//6 215//7
f 215//7 216//7 217//8
f 217//8 218//8 219//9
f 219//9 220//9 221//10
f 221//10 222//10 223//11
f 223//11 224//11 225//12
f 225//12 226//12 227//9
f 227//9 228//9 229//9
f 229//9 230//9 231//10
f 231//10 232//10 213//6
f 233//10 234//10 235//9
f 235//9 236//9 237//8
f 237//8 238//8 239//7
f 239//7 240//7 241//6
f 241//6 242//6 233//10
f 243//10 244//10 245//13
f 245//13 246//13 247//8
f 247//8 248//8 249//6
f 249//6 250//6 243//10
f 251//6 252//6 253//14
f 253//14 254//14 255//9
f 255//9 256//9 257//10
f 257//10 258//10 259//15
f 259//15 260//15 261//16
f 261//16 262//16 263//15
f 263//15 264//15 265//11
f 265//11 266//11 251//6
f 267//6 268//6 269//14
f 269//14 270//14 271//17
f 271//17 272//17 273//13
f 273//13 274//13 275//10
f 275//10 276//10 277//6
f 277//6 278//6 279//16
f 279//16 280//16 281//11
f 281//11 282//11 283//11
f 283//11 284//11 285//16
f 285//16 286//16 287//6
f 287//6 288//6 289//10
f 289//10 290//10 291//10
f 291//10 292//10 267//6
f 293//10 294//10 295//13
f 295//13 296//13 297//17
f 297//17 298//17 299//14
f 299//14 300//14 301//6
f 301//6 302//6 293//10
f 303//6 304//6 305//14
f 305//14 306//14 307//9
f 307//9 308//9 309//10
f 309//10 310//10 311//15
f 311//15 312//15 313//16
f 313//16 314//16 315//15
f 315//15 316//15 317//11
f 317//11 318//11 319//6
f 319//6 320//6 321//14
f 321//14 322//14 323//8
f 323//8 324//8 325//7
f 325//7 326//7 327//6
f 327//6 328//6 303//6
f 329//6 330//6 331//14
f 331//14 332//14 333//14
f 333//14 334//14 335//14
f 335//14 336//14 337//9
f 337//9 338//9 339//10
f 339//10 340//10 341//6
f 341//6 342//6 343//6
f 343//6 344//6 329//6
f 345//6 346//6 347//7
f 347//7 348//7 349//8
f 349//8 350//8 351//9
f 351//9 352//9 353//10
f 353//10 354//10 355//11
f 355//11 356//11 357//12
f 357//12 358//12 359//9
f 359//9 360//9 361//9
f 361//9 362//9 363//10
f 363//10 364//10 345//6
f 365//10 366//10 367//9
f 367//9 368//9 369//8
f 369//8 370//8 371//7
f 371//7 372//7 373//6
f 373//6 374//6 365//10
f 375//10 376//10 377//13
f 377//13 378//13 379//8
f 379//8 380//8 381//6
f 381//6 382//6 375//10
f 383//6 384//6 385//14
f 385//14 386//14 387//9
f 387//9 388//9 389//10
f 389//10 390//10 391//15
f 391//15 392//15 393//16
f 393//16 394//16 395//15
f 395//15 396//15 397//11
f 397//11 398//11 383//6
f 399//6 400//6 401//14
f 401//14 402//14 403//17
f 403//17 404//17 405//13
f 405//13 406//13 407//10
f 407//10 408//10 409//6
f 409//6 410//6 411//16
f 411//16 412//16 413//11
f 413//11 414//11 415//11
f 415//11 416//11 417//16
f 417//16 418//16 419//6
f 419//6 420//6 421//10
f 421//10 422//10 423//10
f 423//10 424//10 399//6
